<?xml version="1.0" standalone="no"?>
<!DOCTYPE svg PUBLIC "-//W3C//DTD SVG 20010904//EN"
 "http://www.w3.org/TR/2001/REC-SVG-20010904/DTD/svg10.dtd">
<svg version="1.0" xmlns="http://www.w3.org/2000/svg"
 width="128.000000pt" height="128.000000pt" viewBox="0 0 128.000000 128.000000"
 preserveAspectRatio="xMidYMid meet">
<metadata>
Created by potrace 1.14, written by Peter Selinger 2001-2017
</metadata>
<g transform="translate(0.000000,128.000000) scale(0.100000,-0.100000)"
fill="#000000" stroke="none">
<path d="M620 1241 c22 -13 89 -25 69 -12 -9 6 -31 13 -50 16 -22 3 -29 2 -19
-4z"/>
<path d="M715 1229 c-10 -15 1 -22 33 -25 15 -1 50 -5 77 -9 28 -4 47 -4 44
-1 -7 7 -21 10 -85 20 -22 4 -40 11 -42 16 -5 13 -19 13 -27 -1z"/>
<path d="M700 1160 c-7 -16 -15 -31 -19 -31 -3 -1 -26 -3 -51 -4 -108 -7 -177
-65 -183 -153 -1 -23 -7 -42 -13 -42 -7 0 -28 -18 -48 -40 -20 -22 -43 -40
-52 -40 -10 0 -13 -6 -9 -19 3 -10 -4 -40 -16 -67 -32 -72 -30 -204 3 -301 17
-48 22 -75 15 -82 -5 -5 -12 -40 -14 -78 -4 -64 -9 -108 -13 -108 -1 0 -3 -16
-5 -35 -2 -19 -10 -37 -17 -39 -7 -2 -24 -16 -39 -30 -14 -14 -45 -39 -69 -56
l-43 -30 503 -3 c277 -1 505 0 508 3 9 9 -51 85 -83 105 -34 21 -33 18 -52
165 -10 86 -18 101 -61 121 -2 1 8 24 22 50 14 27 28 65 32 84 8 35 8 142 1
190 -2 14 -5 30 -5 36 -1 7 -18 36 -37 64 -34 50 -44 87 -47 167 -2 42 -25 63
-120 107 -75 35 -77 37 -68 62 12 31 12 34 1 34 -5 0 -14 -13 -21 -30z"/>
</g>
</svg>
